<svg width="111" height="200" viewBox="0 0 111 200" fill="none" xmlns="http://www.w3.org/2000/svg">
<path d="M102.879 191.691C92.6094 201.96 76.0061 201.96 65.7367 191.691L18.6326 144.587C12.6062 138.56 7.8712 131.489 4.67353 123.556C1.59884 115.931 -3.99769e-06 107.937 -4.35788e-06 99.6965C-4.71807e-06 91.4563 1.53735 83.4007 4.67352 75.837C7.87119 67.9658 12.5447 60.894 18.6326 54.8061L65.7367 7.70205C76.0061 -2.56738 92.6094 -2.56739 102.879 7.70205C113.148 17.9715 113.148 34.5747 102.879 44.8442L55.7747 91.9483C51.4702 96.2529 51.4702 103.202 55.7747 107.445L102.879 154.549C113.148 164.818 113.148 181.422 102.879 191.691Z" fill="#ED1C24"/>
</svg>
